<svg xmlns="http://www.w3.org/2000/svg" version="1.1" xmlns:xlink="http://www.w3.org/1999/xlink" xmlns:svgjs="http://svgjs.dev/svgjs" width="1500" height="1500" viewBox="0 0 1500 1500"><rect width="1500" height="1500" fill="#ffffff"></rect><g transform="matrix(0.6666666666666666,0,0,0.6666666666666666,249.7199214591862,88.53978494623658)"><svg viewBox="0 0 188 248" data-background-color="#77d4fc" preserveAspectRatio="xMidYMid meet" height="1978" width="1500" xmlns="http://www.w3.org/2000/svg" xmlns:xlink="http://www.w3.org/1999/xlink"><g id="tight-bounds" transform="matrix(1,0,0,1,0.05265476567299743,0.4000000000000057)"><svg viewBox="0 0 187.894690468654 247.2" height="247.2" width="187.894690468654"><g><svg viewBox="0 0 334.83455966283253 440.5185848636883" height="247.2" width="187.894690468654"><g transform="matrix(1,0,0,1,0,193.31858486368833)"><svg viewBox="0 0 334.83455966283253 247.2" height="247.2" width="334.83455966283253"><g id="textblocktransform"><svg viewBox="0 0 334.83455966283253 247.2" height="247.2" width="334.83455966283253" id="textblock"><g><svg viewBox="0 0 334.83455966283253 247.2" height="247.2" width="334.83455966283253"><g transform="matrix(1,0,0,1,0,0)"><svg width="334.83455966283253" viewBox="2.24 -40.34 55.089999999999996 40.68000000000001" height="247.2" data-palette-color="#000000"><path d="M10.09 0.34L10.09 0.34Q6.16 0.34 4.31-1.23 2.46-2.79 2.34-6.56L2.34-6.56Q2.3-7.95 2.29-9.25 2.29-10.55 2.31-11.83 2.34-13.11 2.41-14.45L2.41-14.45 3.2-14.45Q3.15-13.39 3.11-12.2 3.08-11.01 3.08-9.63 3.09-8.25 3.14-6.59L3.14-6.59Q3.25-3.16 4.89-1.73 6.54-0.29 10.09-0.29L10.09-0.29Q13.64-0.29 15.23-1.75 16.81-3.21 16.95-6.59L16.95-6.59Q17-7.63 17.01-8.72 17.03-9.83 17.02-10.97 17.01-12.11 16.96-13.24L16.96-13.24Q16.85-16.54 15.36-18.23 13.86-19.93 11.24-20.63L11.24-20.63 8.55-21.35Q7.5-21.64 6.83-22.18 6.15-22.73 5.82-23.78 5.49-24.84 5.44-26.65L5.44-26.65Q5.4-28.33 5.42-29.97 5.44-31.61 5.48-33.41L5.48-33.41Q5.53-35.76 6.6-36.78 7.68-37.8 10.05-37.8L10.05-37.8Q12.19-37.8 13.27-36.83 14.35-35.85 14.43-33.36L14.43-33.36Q14.46-32.05 14.45-30.12 14.44-28.19 14.39-26.13L14.39-26.13 13.6-26.13Q13.65-28.21 13.66-30.09 13.66-31.96 13.63-33.34L13.63-33.34Q13.58-35.41 12.73-36.29 11.89-37.18 10.05-37.18L10.05-37.18Q8.14-37.18 7.23-36.31 6.31-35.45 6.26-33.36L6.26-33.36Q6.23-31.68 6.21-29.99 6.2-28.31 6.23-26.66L6.23-26.66Q6.26-25.01 6.55-24.1 6.84-23.19 7.39-22.76 7.94-22.34 8.74-22.11L8.74-22.11 11.41-21.38Q14.41-20.55 16.02-18.66 17.63-16.76 17.76-13.26L17.76-13.26Q17.8-12.21 17.81-11.05 17.81-9.89 17.8-8.74 17.79-7.59 17.74-6.56L17.74-6.56Q17.59-2.86 15.81-1.26 14.04 0.34 10.09 0.34ZM10.09-0.93L10.09-0.93Q6.94-0.93 5.48-2.23 4.03-3.54 3.93-6.61L3.93-6.61Q3.89-8.03 3.88-9.31 3.88-10.59 3.9-11.86 3.93-13.13 3.98-14.45L3.98-14.45 4.78-14.45Q4.71-13.24 4.69-12.01 4.66-10.78 4.67-9.46 4.67-8.14 4.71-6.64L4.71-6.64Q4.81-3.9 6.07-2.73 7.33-1.56 10.09-1.56L10.09-1.56Q12.81-1.56 14.04-2.75 15.26-3.94 15.36-6.64L15.36-6.64Q15.41-7.7 15.43-8.78 15.44-9.86 15.43-10.96 15.43-12.06 15.39-13.18L15.39-13.18Q15.33-14.96 14.79-16.14 14.26-17.32 13.28-18.04 12.3-18.75 10.9-19.13L10.9-19.13 8.18-19.85Q6.85-20.2 5.9-20.89 4.95-21.59 4.42-22.94 3.9-24.29 3.85-26.6L3.85-26.6Q3.83-27.68 3.83-28.83 3.83-29.98 3.84-31.14 3.86-32.3 3.89-33.45L3.89-33.45Q3.96-36.48 5.41-37.77 6.85-39.08 10.05-39.08L10.05-39.08Q13.03-39.08 14.47-37.81 15.91-36.55 16-33.4L16-33.4Q16.04-32.13 16.03-30.14 16.03-28.15 15.98-26.13L15.98-26.13 15.18-26.13Q15.24-28.2 15.24-30.14 15.25-32.09 15.21-33.39L15.21-33.39Q15.13-36.23 13.86-37.33 12.59-38.44 10.05-38.44L10.05-38.44Q7.26-38.44 6.01-37.28 4.75-36.13 4.67-33.43L4.67-33.43Q4.64-31.84 4.63-30.02 4.61-28.2 4.65-26.63L4.65-26.63Q4.7-24.58 5.12-23.38 5.54-22.18 6.35-21.54 7.16-20.91 8.36-20.59L8.36-20.59 11.06-19.88Q13.4-19.25 14.73-17.75 16.06-16.25 16.18-13.2L16.18-13.2Q16.23-11.99 16.23-10.89 16.24-9.8 16.22-8.76 16.2-7.71 16.15-6.61L16.15-6.61Q16.04-3.6 14.64-2.26 13.24-0.93 10.09-0.93ZM10.09-2.2L10.09-2.2Q7.74-2.2 6.66-3.23 5.58-4.26 5.51-6.66L5.51-6.66Q5.48-7.95 5.46-9.19 5.44-10.43 5.47-11.72 5.5-13.01 5.56-14.45L5.56-14.45 6.34-14.45Q6.29-12.98 6.26-11.76 6.24-10.54 6.25-9.34 6.26-8.14 6.3-6.68L6.3-6.68Q6.36-4.6 7.26-3.71 8.15-2.83 10.09-2.83L10.09-2.83Q11.98-2.83 12.83-3.73 13.69-4.63 13.78-6.68L13.78-6.68Q13.83-7.89 13.84-8.94 13.86-10 13.86-11.01 13.85-12.03 13.8-13.11L13.8-13.11Q13.75-14.51 13.37-15.41 12.99-16.31 12.29-16.84 11.59-17.36 10.55-17.64L10.55-17.64 7.81-18.36Q6.04-18.84 4.82-19.74 3.6-20.64 2.97-22.28 2.34-23.91 2.27-26.56L2.27-26.56Q2.24-28.04 2.24-29.79 2.25-31.55 2.3-33.49L2.3-33.49Q2.4-37.23 4.24-38.78 6.09-40.34 10.05-40.34L10.05-40.34Q13.74-40.34 15.61-38.84 17.48-37.34 17.59-33.46L17.59-33.46Q17.63-32.23 17.62-30.27 17.61-28.31 17.55-26.13L17.55-26.13 16.76-26.13Q16.82-28.15 16.83-30.12 16.84-32.09 16.8-33.43L16.8-33.43Q16.7-36.91 15.06-38.31 13.41-39.71 10.05-39.71L10.05-39.71Q6.45-39.71 4.82-38.27 3.19-36.84 3.1-33.46L3.1-33.46Q3.05-32 3.04-30.01 3.03-28.03 3.06-26.58L3.06-26.58Q3.11-24.23 3.65-22.74 4.19-21.25 5.26-20.4 6.34-19.55 8-19.1L8-19.1 10.73-18.38Q11.88-18.09 12.72-17.49 13.56-16.9 14.05-15.86 14.54-14.81 14.59-13.15L14.59-13.15Q14.63-12.09 14.64-11.01 14.65-9.94 14.64-8.85 14.63-7.76 14.58-6.66L14.58-6.66Q14.48-4.28 13.44-3.24 12.4-2.2 10.09-2.2ZM30.71 0.34L30.71 0.34Q26.76 0.34 24.84-1.2 22.92-2.74 22.85-6.56L22.85-6.56Q22.76-11.28 22.72-15.64 22.68-20 22.72-24.34 22.76-28.68 22.86-33.3L22.86-33.3Q22.95-36.9 24.67-38.62 26.4-40.34 30.68-40.34L30.68-40.34Q34.7-40.34 36.5-38.73 38.3-37.13 38.46-33.45L38.46-33.45Q38.55-31.41 38.55-29.79 38.55-28.16 38.46-26.13L38.46-26.13 37.66-26.13Q37.73-27.78 37.75-29.5 37.76-31.23 37.66-33.43L37.66-33.43Q37.52-36.91 35.82-38.31 34.11-39.71 30.68-39.71L30.68-39.71Q27.04-39.71 25.38-38.23 23.72-36.75 23.63-33.26L23.63-33.26Q23.55-28.74 23.52-24.23 23.48-19.73 23.52-15.31 23.56-10.89 23.63-6.58L23.63-6.58Q23.71-3.1 25.42-1.69 27.13-0.29 30.71-0.29L30.71-0.29Q34.42-0.29 36.07-1.76 37.72-3.23 37.84-6.58L37.84-6.58Q37.87-8.08 37.89-9.53 37.91-10.98 37.91-12.59 37.91-14.2 37.86-16.16L37.86-16.16 30.77-16.16 30.77-16.85 38.63-16.85Q38.71-13.68 38.7-11.4 38.7-9.13 38.62-6.56L38.62-6.56Q38.51-2.86 36.67-1.26 34.84 0.34 30.71 0.34ZM30.71-0.93L30.71-0.93Q27.5-0.93 26-2.23 24.51-3.53 24.43-6.63L24.43-6.63Q24.34-10.91 24.3-15.23 24.27-19.54 24.3-24.02 24.34-28.5 24.45-33.26L24.45-33.26Q24.52-36.23 25.9-37.65 27.27-39.08 30.68-39.08L30.68-39.08Q33.85-39.08 35.29-37.76 36.73-36.44 36.87-33.39L36.87-33.39Q36.96-31.35 36.96-29.74 36.96-28.13 36.87-26.13L36.87-26.13 36.09-26.13Q36.17-28.09 36.17-29.7 36.17-31.31 36.09-33.33L36.09-33.33Q35.95-36.11 34.68-37.27 33.41-38.44 30.68-38.44L30.68-38.44Q27.73-38.44 26.52-37.18 25.3-35.93 25.23-33.25L25.23-33.25Q25.13-28.59 25.1-24.19 25.06-19.8 25.1-15.46 25.13-11.13 25.22-6.61L25.22-6.61Q25.3-3.78 26.65-2.67 28-1.56 30.71-1.56L30.71-1.56Q33.53-1.56 34.85-2.71 36.17-3.86 36.25-6.63L36.25-6.63Q36.28-8.33 36.31-10.12 36.34-11.91 36.3-14.78L36.3-14.78 30.77-14.78 30.77-15.48 37.1-15.48Q37.11-13.24 37.1-10.93 37.1-8.63 37.03-6.61L37.03-6.61Q36.95-3.54 35.46-2.23 33.97-0.93 30.71-0.93ZM30.71-2.2L30.71-2.2Q28.35-2.2 27.21-3.19 26.07-4.19 26.01-6.63L26.01-6.63Q25.93-11.05 25.9-15.38 25.86-19.7 25.89-24.12 25.92-28.54 26.01-33.21L26.01-33.21Q26.07-35.71 27.18-36.76 28.3-37.8 30.68-37.8L30.68-37.8Q33.03-37.8 34.1-36.75 35.17-35.7 35.3-33.27L35.3-33.27Q35.38-31.31 35.38-29.7 35.38-28.09 35.28-26.13L35.28-26.13 34.5-26.13Q34.57-27.7 34.59-28.8 34.6-29.9 34.57-30.92 34.55-31.94 34.5-33.25L34.5-33.25Q34.41-35.24 33.59-36.21 32.76-37.18 30.68-37.18L30.68-37.18Q28.67-37.18 27.77-36.24 26.86-35.31 26.81-33.1L26.81-33.1Q26.71-28.69 26.68-24.23 26.65-19.78 26.68-15.36 26.72-10.95 26.81-6.68L26.81-6.68Q26.85-4.56 27.79-3.69 28.72-2.83 30.71-2.83L30.71-2.83Q32.81-2.83 33.72-3.74 34.63-4.66 34.7-6.71L34.7-6.71Q34.73-8.16 34.73-9.83 34.73-11.49 34.7-13.4L34.7-13.4 30.77-13.4 30.77-14.09 35.51-14.09Q35.53-11.73 35.53-9.83 35.52-7.94 35.48-6.66L35.48-6.66Q35.42-4.19 34.25-3.19 33.09-2.2 30.71-2.2ZM49.68 0L48.9 0 48.9-37.94 41.23-37.94 41.23-38.63 57.33-38.63 57.33-37.94 49.68-37.94 49.68 0ZM48.1 0L47.31 0 47.31-36.56 41.23-36.56 41.23-37.25 48.1-37.25 48.1 0ZM51.27 0L50.47 0 50.47-37.25 57.33-37.25 57.33-36.56 51.27-36.56 51.27 0ZM57.33-39.31L41.23-39.31 41.23-40 57.33-40 57.33-39.31Z" opacity="1" transform="matrix(1,0,0,1,0,0)" fill="#000000" class="wordmark-text-0" data-fill-palette-color="primary" id="text-0"></path></svg></g></svg></g></svg></g></svg></g><g transform="matrix(1,0,0,1,63.95340089560102,0)"><svg viewBox="0 0 206.9277578716305 134.96059766368833" height="134.96059766368833" width="206.9277578716305"><g><svg xmlns="http://www.w3.org/2000/svg" xmlns:xlink="http://www.w3.org/1999/xlink" version="1.1" x="8" y="0" viewBox="1 15.727 98 69.273" enable-background="new 0 0 100 100" xml:space="preserve" height="134.96059766368833" width="190.9277578716305" class="icon-icon-0" data-fill-palette-color="accent" id="icon-0"><circle cx="18.869" cy="28.494" r="13" fill="#000000" data-fill-palette-color="accent"></circle><path d="M48.443 72.14A4.48 4.48 0 0 0 51.616 70.831L68.06 54.394A4.466 4.466 0 1 0 61.748 48.076L48.471 61.147S34.283 45 30.645 45H9.612C5.4 45 1 48.857 1 53.07V85H34V60.665L44.739 70.831C45.612 71.704 47.3 72.14 48.443 72.14" fill="#000000" data-fill-palette-color="accent"></path><polygon points="44,16 44,49.221 47.983,53.428 51,50.421 51,24 92,24 92,78 44,78 44,85 99,85 99,16 " fill="#000000" data-fill-palette-color="accent"></polygon></svg></g></svg></g><g></g></svg></g><defs></defs></svg><rect width="187.894690468654" height="247.2" fill="none" stroke="none" visibility="hidden"></rect></g></svg></g></svg>